<svg xmlns="http://www.w3.org/2000/svg" width="200" height="200" viewBox="0 0 200 200"><circle cx="100" cy="100" r="100" fill="#E4EFE6"/><path d="M28 200C30 160 64 140 100 140C136 140 170 160 172 200Z" fill="#2E8060"/><path d="M86 150L100 170L114 150" fill="none" stroke="#FFFFFF" stroke-width="5" stroke-linecap="round" stroke-linejoin="round" opacity="0.6"/><rect x="88" y="124" width="24" height="22" fill="#F2C9A0"/><circle cx="60.8" cy="96" r="8" fill="#F2C9A0"/><circle cx="139.2" cy="96" r="8" fill="#F2C9A0"/><circle cx="100" cy="92" r="40" fill="#F2C9A0"/><ellipse cx="85.6" cy="92.8" rx="3.4" ry="4.4" fill="#2B2116"/><circle cx="86.8" cy="91.2" r="1.2" fill="#FFFFFF"/><path d="M80 82.8Q85.6 79.2 91.2 82.4" fill="none" stroke="#2B2116" stroke-width="2.4" stroke-linecap="round" stroke-linejoin="round" opacity="0.8"/><circle cx="78" cy="104" r="5.2" fill="#EF8F7A" opacity="0.35"/><ellipse cx="114.4" cy="92.8" rx="3.4" ry="4.4" fill="#2B2116"/><circle cx="115.6" cy="91.2" r="1.2" fill="#FFFFFF"/><path d="M120 82.8Q114.4 79.2 108.8 82.4" fill="none" stroke="#2B2116" stroke-width="2.4" stroke-linecap="round" stroke-linejoin="round" opacity="0.8"/><circle cx="122" cy="104" r="5.2" fill="#EF8F7A" opacity="0.35"/><path d="M91.2 106.4Q100 114.4 108.8 106.4" fill="none" stroke="#8A3B2E" stroke-width="2.8" stroke-linecap="round" stroke-linejoin="round"/><path d="M59.2 88C58 42 142 42 140.8 88C128 67.2 104 70 94 60.8C84 72 68 70 59.2 88Z" fill="#2B2116"/></svg>