<svg xmlns="http://www.w3.org/2000/svg" width="48" height="48" viewBox="0 0 48 48"><path d="M15 24A9 9 0 1 0 33 24A9 9 0 1 0 15 24Z" fill="#EBD9AE"/><path d="M15 24A9 9 0 1 0 33 24A9 9 0 1 0 15 24Z" fill="none" stroke="#8C6D2E" stroke-width="2.6" stroke-linecap="round" stroke-linejoin="round"/><path d="M37 24L42 24" fill="none" stroke="#8C6D2E" stroke-width="2.6" stroke-linecap="round" stroke-linejoin="round"/><path d="M33.19 33.19L36.73 36.73" fill="none" stroke="#8C6D2E" stroke-width="2.6" stroke-linecap="round" stroke-linejoin="round"/><path d="M24 37L24 42" fill="none" stroke="#8C6D2E" stroke-width="2.6" stroke-linecap="round" stroke-linejoin="round"/><path d="M14.81 33.19L11.27 36.73" fill="none" stroke="#8C6D2E" stroke-width="2.6" stroke-linecap="round" stroke-linejoin="round"/><path d="M11 24L6 24" fill="none" stroke="#8C6D2E" stroke-width="2.6" stroke-linecap="round" stroke-linejoin="round"/><path d="M14.81 14.81L11.27 11.27" fill="none" stroke="#8C6D2E" stroke-width="2.6" stroke-linecap="round" stroke-linejoin="round"/><path d="M24 11L24 6" fill="none" stroke="#8C6D2E" stroke-width="2.6" stroke-linecap="round" stroke-linejoin="round"/><path d="M33.19 14.81L36.73 11.27" fill="none" stroke="#8C6D2E" stroke-width="2.6" stroke-linecap="round" stroke-linejoin="round"/></svg>