<svg xmlns="http://www.w3.org/2000/svg" width="48" height="48" viewBox="0 0 48 48"><path d="M9 25A15 15 0 1 0 39 25A15 15 0 1 0 9 25Z" fill="#EBD9AE"/><path d="M9 25A15 15 0 1 0 39 25A15 15 0 1 0 9 25Z" fill="none" stroke="#8C6D2E" stroke-width="2.6" stroke-linecap="round" stroke-linejoin="round"/><path d="M10 21C11 13 17 9 24 9C31 9 37 13 38 21C34 18 30 17 27 14C24 17 16 19 10 21Z" fill="#8C6D2E"/><circle cx="19" cy="26" r="1.8" fill="#8C6D2E"/><circle cx="29" cy="26" r="1.8" fill="#8C6D2E"/><path d="M19.5 31.5C21 33.5 27 33.5 28.5 31.5" fill="none" stroke="#8C6D2E" stroke-width="2" stroke-linecap="round" stroke-linejoin="round"/></svg>