<svg xmlns="http://www.w3.org/2000/svg" width="48" height="48" viewBox="0 0 48 48"><path d="M7 34A6 6 0 1 0 19 34A6 6 0 1 0 7 34Z" fill="#EBD9AE"/><path d="M7 34A6 6 0 1 0 19 34A6 6 0 1 0 7 34Z" fill="none" stroke="#8C6D2E" stroke-width="2.6" stroke-linecap="round" stroke-linejoin="round"/><path d="M29 34A6 6 0 1 0 41 34A6 6 0 1 0 29 34Z" fill="#EBD9AE"/><path d="M29 34A6 6 0 1 0 41 34A6 6 0 1 0 29 34Z" fill="none" stroke="#8C6D2E" stroke-width="2.6" stroke-linecap="round" stroke-linejoin="round"/><path d="M17 30L34 6M31 30L14 6" fill="none" stroke="#8C6D2E" stroke-width="2.6" stroke-linecap="round" stroke-linejoin="round"/></svg>