<svg xmlns="http://www.w3.org/2000/svg" width="48" height="48" viewBox="0 0 48 48"><path d="M24 41C24 41 7 31 7 18C7 12 11 8 16.5 8C20 8 22.5 10 24 12.5C25.5 10 28 8 31.5 8C37 8 41 12 41 18C41 31 24 41 24 41Z" fill="#EBD9AE"/><path d="M24 41C24 41 7 31 7 18C7 12 11 8 16.5 8C20 8 22.5 10 24 12.5C25.5 10 28 8 31.5 8C37 8 41 12 41 18C41 31 24 41 24 41Z" fill="none" stroke="#8C6D2E" stroke-width="2.6" stroke-linecap="round" stroke-linejoin="round"/><path d="M35 11Q35.72 14.28 39 15Q35.72 15.72 35 19Q34.28 15.72 31 15Q34.28 14.28 35 11Z" fill="#8C6D2E"/></svg>