<svg xmlns="http://www.w3.org/2000/svg" width="1200" height="520" viewBox="0 0 1200 520"><defs><linearGradient id="d2l1" x1="0" y1="0" x2="0" y2="1"><stop offset="0" stop-color="#FBF3E1"/><stop offset="0.55" stop-color="#F8EDD6"/><stop offset="1" stop-color="#F3E6C9"/></linearGradient><radialGradient id="d2r2" cx="0.5" cy="0.5" r="0.5"><stop offset="0" stop-color="#F6C35B" stop-opacity="0.55"/><stop offset="0.5" stop-color="#F6C35B" stop-opacity="0.18"/><stop offset="1" stop-color="#F6C35B" stop-opacity="0"/></radialGradient></defs><rect x="0" y="0" width="1200" height="520" fill="url(#d2l1)"/><circle cx="300" cy="150" r="166.4" fill="url(#d2r2)"/><circle cx="300" cy="150" r="52" fill="#F6C35B"/><path d="M365 150L383.2 150" fill="none" stroke="#F6C35B" stroke-width="7" stroke-linecap="round" stroke-linejoin="round"/><path d="M356.29 182.5L372.05 191.6" fill="none" stroke="#F6C35B" stroke-width="7" stroke-linecap="round" stroke-linejoin="round"/><path d="M332.5 206.29L341.6 222.05" fill="none" stroke="#F6C35B" stroke-width="7" stroke-linecap="round" stroke-linejoin="round"/><path d="M300 215L300 233.2" fill="none" stroke="#F6C35B" stroke-width="7" stroke-linecap="round" stroke-linejoin="round"/><path d="M267.5 206.29L258.4 222.05" fill="none" stroke="#F6C35B" stroke-width="7" stroke-linecap="round" stroke-linejoin="round"/><path d="M243.71 182.5L227.95 191.6" fill="none" stroke="#F6C35B" stroke-width="7" stroke-linecap="round" stroke-linejoin="round"/><path d="M235 150L216.8 150" fill="none" stroke="#F6C35B" stroke-width="7" stroke-linecap="round" stroke-linejoin="round"/><path d="M243.71 117.5L227.95 108.4" fill="none" stroke="#F6C35B" stroke-width="7" stroke-linecap="round" stroke-linejoin="round"/><path d="M267.5 93.71L258.4 77.95" fill="none" stroke="#F6C35B" stroke-width="7" stroke-linecap="round" stroke-linejoin="round"/><path d="M300 85L300 66.8" fill="none" stroke="#F6C35B" stroke-width="7" stroke-linecap="round" stroke-linejoin="round"/><path d="M332.5 93.71L341.6 77.95" fill="none" stroke="#F6C35B" stroke-width="7" stroke-linecap="round" stroke-linejoin="round"/><path d="M356.29 117.5L372.05 108.4" fill="none" stroke="#F6C35B" stroke-width="7" stroke-linecap="round" stroke-linejoin="round"/><path d="M555 120C555 71.04 606 54.72 626.4 81.92C640 32.96 691 38.4 691 87.36C716.5 71.04 725 103.68 725 120Z" fill="#FFFFFF" opacity="0.8"/><path d="M920 80C920 45.44 956 33.92 970.4 53.12C980 18.56 1016 22.4 1016 56.96C1034 45.44 1040 68.48 1040 80Z" fill="#FFFFFF" opacity="0.8"/><path d="M27.03 430L27.57 338.52H33.29L33.83 430Z" fill="#D5DFCF"/><path d="M24.47 376.81H36.39L33.83 379.88H27.03Z" fill="#D5DFCF"/><rect x="24.47" y="375.31" width="11.91" height="1.5" fill="#D5DFCF"/><path d="M25.15 347.03H35.71L33.83 350.09H27.03Z" fill="#D5DFCF"/><rect x="25.15" y="345.53" width="10.55" height="1.5" fill="#D5DFCF"/><rect x="27.98" y="331.07" width="4.9" height="8.45" fill="#D5DFCF"/><path d="M27.16 331.07L30.43 317.5L33.7 331.07Z" fill="#D5DFCF"/><path d="M30.43 317.5L30.43 311.37" fill="none" stroke="#D5DFCF" stroke-width="0.82" stroke-linecap="round" stroke-linejoin="round"/><path d="M28.47 308.72A2.18 2.18 0 1 0 32.39 308.72A2 2 0 0 1 28.47 308.72Z" fill="#D5DFCF"/><path d="M146.17 430L146.71 338.52H152.43L152.97 430Z" fill="#D5DFCF"/><path d="M143.61 376.81H155.53L152.97 379.88H146.17Z" fill="#D5DFCF"/><rect x="143.61" y="375.31" width="11.91" height="1.5" fill="#D5DFCF"/><path d="M144.29 347.03H154.85L152.97 350.09H146.17Z" fill="#D5DFCF"/><rect x="144.29" y="345.53" width="10.55" height="1.5" fill="#D5DFCF"/><rect x="147.12" y="331.07" width="4.9" height="8.45" fill="#D5DFCF"/><path d="M146.3 331.07L149.57 317.5L152.84 331.07Z" fill="#D5DFCF"/><path d="M149.57 317.5L149.57 311.37" fill="none" stroke="#D5DFCF" stroke-width="0.82" stroke-linecap="round" stroke-linejoin="round"/><path d="M147.61 308.72A2.18 2.18 0 1 0 151.53 308.72A2 2 0 0 1 147.61 308.72Z" fill="#D5DFCF"/><rect x="43.2" y="399.36" width="93.61" height="30.64" fill="#D5DFCF"/><rect x="41.49" y="396.81" width="97.01" height="2.98" fill="#D5DFCF"/><path d="M44.43 396.81L45.8 394.26L47.16 396.81Z" fill="#D5DFCF"/><path d="M49.63 396.81L51 394.26L52.36 396.81Z" fill="#D5DFCF"/><path d="M54.83 396.81L56.2 394.26L57.56 396.81Z" fill="#D5DFCF"/><path d="M60.04 396.81L61.4 394.26L62.76 396.81Z" fill="#D5DFCF"/><path d="M65.24 396.81L66.6 394.26L67.96 396.81Z" fill="#D5DFCF"/><path d="M70.44 396.81L71.8 394.26L73.16 396.81Z" fill="#D5DFCF"/><path d="M75.64 396.81L77 394.26L78.36 396.81Z" fill="#D5DFCF"/><path d="M80.84 396.81L82.2 394.26L83.56 396.81Z" fill="#D5DFCF"/><path d="M86.04 396.81L87.4 394.26L88.76 396.81Z" fill="#D5DFCF"/><path d="M91.24 396.81L92.6 394.26L93.96 396.81Z" fill="#D5DFCF"/><path d="M96.44 396.81L97.8 394.26L99.16 396.81Z" fill="#D5DFCF"/><path d="M101.64 396.81L103 394.26L104.36 396.81Z" fill="#D5DFCF"/><path d="M106.84 396.81L108.2 394.26L109.56 396.81Z" fill="#D5DFCF"/><path d="M112.04 396.81L113.4 394.26L114.76 396.81Z" fill="#D5DFCF"/><path d="M117.24 396.81L118.6 394.26L119.96 396.81Z" fill="#D5DFCF"/><path d="M122.44 396.81L123.8 394.26L125.17 396.81Z" fill="#D5DFCF"/><path d="M127.64 396.81L129 394.26L130.37 396.81Z" fill="#D5DFCF"/><path d="M132.84 396.81L134.2 394.26L135.57 396.81Z" fill="#D5DFCF"/><rect x="69.58" y="386.6" width="40.85" height="10.64" fill="#D5DFCF"/><rect x="67.87" y="385.32" width="44.25" height="2.13" fill="#D5DFCF"/><path d="M66.17 385.32C59.5 370.26 67.13 354.19 82.38 345.16C86.66 341.14 89.05 338.63 90 335.11C90.95 338.63 93.34 341.14 97.62 345.16C112.87 354.19 120.5 370.26 113.83 385.32Z" fill="#D5DFCF"/><path d="M90 335.11L90 328.31" fill="none" stroke="#D5DFCF" stroke-width="1.02" stroke-linecap="round" stroke-linejoin="round"/><path d="M87.7 324.64A2.55 2.55 0 1 0 92.3 324.64A2.35 2.35 0 0 1 87.7 324.64Z" fill="#D5DFCF"/><rect x="281.95" y="398.55" width="96.09" height="31.45" fill="#D5DFCF"/><rect x="280.21" y="395.93" width="99.58" height="3.06" fill="#D5DFCF"/><path d="M283.23 395.93L284.62 393.31L286.02 395.93Z" fill="#D5DFCF"/><path d="M288.56 395.93L289.96 393.31L291.36 395.93Z" fill="#D5DFCF"/><path d="M293.9 395.93L295.3 393.31L296.7 395.93Z" fill="#D5DFCF"/><path d="M299.24 395.93L300.64 393.31L302.04 395.93Z" fill="#D5DFCF"/><path d="M304.58 395.93L305.98 393.31L307.37 395.93Z" fill="#D5DFCF"/><path d="M309.92 395.93L311.32 393.31L312.71 395.93Z" fill="#D5DFCF"/><path d="M315.26 395.93L316.65 393.31L318.05 395.93Z" fill="#D5DFCF"/><path d="M320.59 395.93L321.99 393.31L323.39 395.93Z" fill="#D5DFCF"/><path d="M325.93 395.93L327.33 393.31L328.73 395.93Z" fill="#D5DFCF"/><path d="M331.27 395.93L332.67 393.31L334.07 395.93Z" fill="#D5DFCF"/><path d="M336.61 395.93L338.01 393.31L339.41 395.93Z" fill="#D5DFCF"/><path d="M341.95 395.93L343.35 393.31L344.74 395.93Z" fill="#D5DFCF"/><path d="M347.29 395.93L348.68 393.31L350.08 395.93Z" fill="#D5DFCF"/><path d="M352.63 395.93L354.02 393.31L355.42 395.93Z" fill="#D5DFCF"/><path d="M357.96 395.93L359.36 393.31L360.76 395.93Z" fill="#D5DFCF"/><path d="M363.3 395.93L364.7 393.31L366.1 395.93Z" fill="#D5DFCF"/><path d="M368.64 395.93L370.04 393.31L371.44 395.93Z" fill="#D5DFCF"/><path d="M373.98 395.93L375.38 393.31L376.77 395.93Z" fill="#D5DFCF"/><rect x="309.03" y="385.45" width="41.93" height="10.92" fill="#D5DFCF"/><rect x="307.29" y="384.14" width="45.42" height="2.18" fill="#D5DFCF"/><path d="M304.67 384.14C304.67 361.21 307.2 353.56 330 353.56C352.8 353.56 355.33 361.21 355.33 384.14Z" fill="#D5DFCF"/><path d="M330 353.56L330 346.58" fill="none" stroke="#D5DFCF" stroke-width="1.05" stroke-linecap="round" stroke-linejoin="round"/><path d="M327.64 342.81A2.62 2.62 0 1 0 332.36 342.81A2.41 2.41 0 0 1 327.64 342.81Z" fill="#D5DFCF"/><path d="M489.69 430L490.3 327.87H496.69L497.29 430Z" fill="#D5DFCF"/><path d="M486.84 370.62H500.14L497.29 374.04H489.69Z" fill="#D5DFCF"/><rect x="486.84" y="368.95" width="13.3" height="1.67" fill="#D5DFCF"/><path d="M487.6 337.37H499.38L497.29 340.79H489.69Z" fill="#D5DFCF"/><rect x="487.6" y="335.69" width="11.78" height="1.67" fill="#D5DFCF"/><rect x="490.76" y="319.55" width="5.47" height="9.31" fill="#D5DFCF"/><path d="M489.85 319.55L493.49 304.4L497.14 319.55Z" fill="#D5DFCF"/><path d="M493.49 304.4L493.49 297.56" fill="none" stroke="#D5DFCF" stroke-width="0.91" stroke-linecap="round" stroke-linejoin="round"/><path d="M491.31 294.6A2.43 2.43 0 1 0 495.68 294.6A2.24 2.24 0 0 1 491.31 294.6Z" fill="#D5DFCF"/><path d="M622.71 430L623.31 327.87H629.7L630.31 430Z" fill="#D5DFCF"/><path d="M619.86 370.62H633.16L630.31 374.04H622.71Z" fill="#D5DFCF"/><rect x="619.86" y="368.95" width="13.3" height="1.67" fill="#D5DFCF"/><path d="M620.62 337.37H632.4L630.31 340.79H622.71Z" fill="#D5DFCF"/><rect x="620.62" y="335.69" width="11.78" height="1.67" fill="#D5DFCF"/><rect x="623.77" y="319.55" width="5.47" height="9.31" fill="#D5DFCF"/><path d="M622.86 319.55L626.51 304.4L630.15 319.55Z" fill="#D5DFCF"/><path d="M626.51 304.4L626.51 297.56" fill="none" stroke="#D5DFCF" stroke-width="0.91" stroke-linecap="round" stroke-linejoin="round"/><path d="M624.32 294.6A2.43 2.43 0 1 0 628.69 294.6A2.24 2.24 0 0 1 624.32 294.6Z" fill="#D5DFCF"/><rect x="507.75" y="395.8" width="104.51" height="34.2" fill="#D5DFCF"/><rect x="505.85" y="392.95" width="108.31" height="3.33" fill="#D5DFCF"/><path d="M509.13 392.95L510.65 390.1L512.17 392.95Z" fill="#D5DFCF"/><path d="M514.93 392.95L516.45 390.1L517.97 392.95Z" fill="#D5DFCF"/><path d="M520.74 392.95L522.26 390.1L523.78 392.95Z" fill="#D5DFCF"/><path d="M526.55 392.95L528.07 390.1L529.59 392.95Z" fill="#D5DFCF"/><path d="M532.35 392.95L533.87 390.1L535.39 392.95Z" fill="#D5DFCF"/><path d="M538.16 392.95L539.68 390.1L541.2 392.95Z" fill="#D5DFCF"/><path d="M543.96 392.95L545.48 390.1L547 392.95Z" fill="#D5DFCF"/><path d="M549.77 392.95L551.29 390.1L552.81 392.95Z" fill="#D5DFCF"/><path d="M555.58 392.95L557.1 390.1L558.62 392.95Z" fill="#D5DFCF"/><path d="M561.38 392.95L562.9 390.1L564.42 392.95Z" fill="#D5DFCF"/><path d="M567.19 392.95L568.71 390.1L570.23 392.95Z" fill="#D5DFCF"/><path d="M573 392.95L574.52 390.1L576.04 392.95Z" fill="#D5DFCF"/><path d="M578.8 392.95L580.32 390.1L581.84 392.95Z" fill="#D5DFCF"/><path d="M584.61 392.95L586.13 390.1L587.65 392.95Z" fill="#D5DFCF"/><path d="M590.41 392.95L591.93 390.1L593.45 392.95Z" fill="#D5DFCF"/><path d="M596.22 392.95L597.74 390.1L599.26 392.95Z" fill="#D5DFCF"/><path d="M602.03 392.95L603.55 390.1L605.07 392.95Z" fill="#D5DFCF"/><path d="M607.83 392.95L609.35 390.1L610.87 392.95Z" fill="#D5DFCF"/><rect x="537.2" y="381.55" width="45.6" height="11.88" fill="#D5DFCF"/><rect x="535.3" y="380.12" width="49.4" height="2.38" fill="#D5DFCF"/><path d="M533.4 380.12C525.95 363.3 534.46 345.37 551.49 335.28C556.28 330.79 558.94 327.99 560 324.07C561.06 327.99 563.72 330.79 568.51 335.28C585.54 345.37 594.05 363.3 586.6 380.12Z" fill="#D5DFCF"/><path d="M560 324.07L560 316.46" fill="none" stroke="#D5DFCF" stroke-width="1.14" stroke-linecap="round" stroke-linejoin="round"/><path d="M557.44 312.37A2.85 2.85 0 1 0 562.56 312.37A2.62 2.62 0 0 1 557.44 312.37Z" fill="#D5DFCF"/><rect x="773.04" y="399.26" width="93.92" height="30.74" fill="#D5DFCF"/><rect x="771.33" y="396.7" width="97.33" height="2.99" fill="#D5DFCF"/><path d="M774.28 396.7L775.65 394.14L777.02 396.7Z" fill="#D5DFCF"/><path d="M779.5 396.7L780.87 394.14L782.23 396.7Z" fill="#D5DFCF"/><path d="M784.72 396.7L786.09 394.14L787.45 396.7Z" fill="#D5DFCF"/><path d="M789.94 396.7L791.3 394.14L792.67 396.7Z" fill="#D5DFCF"/><path d="M795.15 396.7L796.52 394.14L797.89 396.7Z" fill="#D5DFCF"/><path d="M800.37 396.7L801.74 394.14L803.1 396.7Z" fill="#D5DFCF"/><path d="M805.59 396.7L806.96 394.14L808.32 396.7Z" fill="#D5DFCF"/><path d="M810.81 396.7L812.17 394.14L813.54 396.7Z" fill="#D5DFCF"/><path d="M816.03 396.7L817.39 394.14L818.76 396.7Z" fill="#D5DFCF"/><path d="M821.24 396.7L822.61 394.14L823.97 396.7Z" fill="#D5DFCF"/><path d="M826.46 396.7L827.83 394.14L829.19 396.7Z" fill="#D5DFCF"/><path d="M831.68 396.7L833.04 394.14L834.41 396.7Z" fill="#D5DFCF"/><path d="M836.9 396.7L838.26 394.14L839.63 396.7Z" fill="#D5DFCF"/><path d="M842.11 396.7L843.48 394.14L844.85 396.7Z" fill="#D5DFCF"/><path d="M847.33 396.7L848.7 394.14L850.06 396.7Z" fill="#D5DFCF"/><path d="M852.55 396.7L853.91 394.14L855.28 396.7Z" fill="#D5DFCF"/><path d="M857.77 396.7L859.13 394.14L860.5 396.7Z" fill="#D5DFCF"/><path d="M862.98 396.7L864.35 394.14L865.72 396.7Z" fill="#D5DFCF"/><rect x="799.51" y="386.46" width="40.98" height="10.67" fill="#D5DFCF"/><rect x="797.8" y="385.18" width="44.4" height="2.13" fill="#D5DFCF"/><path d="M795.24 385.18C795.24 362.76 797.72 355.29 820 355.29C842.28 355.29 844.76 362.76 844.76 385.18Z" fill="#D5DFCF"/><path d="M820 355.29L820 348.46" fill="none" stroke="#D5DFCF" stroke-width="1.02" stroke-linecap="round" stroke-linejoin="round"/><path d="M817.7 344.78A2.56 2.56 0 1 0 822.3 344.78A2.36 2.36 0 0 1 817.7 344.78Z" fill="#D5DFCF"/><path d="M996.16 430L996.72 337.27H1002.51L1003.07 430Z" fill="#D5DFCF"/><path d="M993.58 376.08H1005.65L1003.07 379.19H996.16Z" fill="#D5DFCF"/><rect x="993.58" y="374.57" width="12.08" height="1.52" fill="#D5DFCF"/><path d="M994.27 345.89H1004.96L1003.07 349H996.16Z" fill="#D5DFCF"/><rect x="994.27" y="344.37" width="10.7" height="1.52" fill="#D5DFCF"/><rect x="997.13" y="329.72" width="4.97" height="8.55" fill="#D5DFCF"/><path d="M996.3 329.72L999.61 315.96L1002.93 329.72Z" fill="#D5DFCF"/><path d="M999.61 315.96L999.61 309.75" fill="none" stroke="#D5DFCF" stroke-width="0.83" stroke-linecap="round" stroke-linejoin="round"/><path d="M997.63 307.06A2.21 2.21 0 1 0 1001.6 307.06A2.03 2.03 0 0 1 997.63 307.06Z" fill="#D5DFCF"/><path d="M1116.93 430L1117.49 337.27H1123.28L1123.84 430Z" fill="#D5DFCF"/><path d="M1114.35 376.08H1126.42L1123.84 379.19H1116.93Z" fill="#D5DFCF"/><rect x="1114.35" y="374.57" width="12.08" height="1.52" fill="#D5DFCF"/><path d="M1115.04 345.89H1125.73L1123.84 349H1116.93Z" fill="#D5DFCF"/><rect x="1115.04" y="344.37" width="10.7" height="1.52" fill="#D5DFCF"/><rect x="1117.9" y="329.72" width="4.97" height="8.55" fill="#D5DFCF"/><path d="M1117.07 329.72L1120.39 315.96L1123.7 329.72Z" fill="#D5DFCF"/><path d="M1120.39 315.96L1120.39 309.75" fill="none" stroke="#D5DFCF" stroke-width="0.83" stroke-linecap="round" stroke-linejoin="round"/><path d="M1118.4 307.06A2.21 2.21 0 1 0 1122.37 307.06A2.03 2.03 0 0 1 1118.4 307.06Z" fill="#D5DFCF"/><rect x="1012.55" y="398.94" width="94.89" height="31.06" fill="#D5DFCF"/><rect x="1010.83" y="396.36" width="98.34" height="3.02" fill="#D5DFCF"/><path d="M1013.81 396.36L1015.19 393.77L1016.57 396.36Z" fill="#D5DFCF"/><path d="M1019.08 396.36L1020.46 393.77L1021.84 396.36Z" fill="#D5DFCF"/><path d="M1024.35 396.36L1025.73 393.77L1027.11 396.36Z" fill="#D5DFCF"/><path d="M1029.63 396.36L1031.01 393.77L1032.39 396.36Z" fill="#D5DFCF"/><path d="M1034.9 396.36L1036.28 393.77L1037.66 396.36Z" fill="#D5DFCF"/><path d="M1040.17 396.36L1041.55 393.77L1042.93 396.36Z" fill="#D5DFCF"/><path d="M1045.44 396.36L1046.82 393.77L1048.2 396.36Z" fill="#D5DFCF"/><path d="M1050.71 396.36L1052.09 393.77L1053.47 396.36Z" fill="#D5DFCF"/><path d="M1055.98 396.36L1057.36 393.77L1058.74 396.36Z" fill="#D5DFCF"/><path d="M1061.26 396.36L1062.64 393.77L1064.02 396.36Z" fill="#D5DFCF"/><path d="M1066.53 396.36L1067.91 393.77L1069.29 396.36Z" fill="#D5DFCF"/><path d="M1071.8 396.36L1073.18 393.77L1074.56 396.36Z" fill="#D5DFCF"/><path d="M1077.07 396.36L1078.45 393.77L1079.83 396.36Z" fill="#D5DFCF"/><path d="M1082.34 396.36L1083.72 393.77L1085.1 396.36Z" fill="#D5DFCF"/><path d="M1087.61 396.36L1088.99 393.77L1090.37 396.36Z" fill="#D5DFCF"/><path d="M1092.89 396.36L1094.27 393.77L1095.65 396.36Z" fill="#D5DFCF"/><path d="M1098.16 396.36L1099.54 393.77L1100.92 396.36Z" fill="#D5DFCF"/><path d="M1103.43 396.36L1104.81 393.77L1106.19 396.36Z" fill="#D5DFCF"/><rect x="1039.3" y="386.01" width="41.41" height="10.78" fill="#D5DFCF"/><rect x="1037.57" y="384.71" width="44.86" height="2.16" fill="#D5DFCF"/><path d="M1035.85 384.71C1029.08 369.44 1036.81 353.16 1052.27 343.99C1056.62 339.92 1059.03 337.38 1060 333.81C1060.97 337.38 1063.38 339.92 1067.73 343.99C1083.19 353.16 1090.92 369.44 1084.15 384.71Z" fill="#D5DFCF"/><path d="M1060 333.81L1060 326.91" fill="none" stroke="#D5DFCF" stroke-width="1.04" stroke-linecap="round" stroke-linejoin="round"/><path d="M1057.67 323.2A2.59 2.59 0 1 0 1062.33 323.2A2.38 2.38 0 0 1 1057.67 323.2Z" fill="#D5DFCF"/><rect x="0" y="428" width="1200" height="60" fill="#D5DFCF"/><path d="M158.24 456L159.03 322.7H167.37L168.16 456Z" fill="#A9C2AE"/><path d="M154.52 378.5H171.88L168.16 382.96H158.24Z" fill="#A9C2AE"/><rect x="154.52" y="376.32" width="17.36" height="2.18" fill="#A9C2AE"/><path d="M155.51 335.1H170.89L168.16 339.56H158.24Z" fill="#A9C2AE"/><rect x="155.51" y="332.92" width="15.38" height="2.18" fill="#A9C2AE"/><rect x="159.63" y="311.85" width="7.14" height="11.85" fill="#A9C2AE"/><path d="M158.44 311.85L163.2 292.07L167.96 311.85Z" fill="#A9C2AE"/><path d="M163.2 292.07L163.2 283.14" fill="none" stroke="#A9C2AE" stroke-width="1.19" stroke-linecap="round" stroke-linejoin="round"/><path d="M160.34 279.28A3.17 3.17 0 1 0 166.06 279.28A2.92 2.92 0 0 1 160.34 279.28Z" fill="#A9C2AE"/><path d="M331.84 456L332.63 322.7H340.97L341.76 456Z" fill="#A9C2AE"/><path d="M328.12 378.5H345.48L341.76 382.96H331.84Z" fill="#A9C2AE"/><rect x="328.12" y="376.32" width="17.36" height="2.18" fill="#A9C2AE"/><path d="M329.11 335.1H344.49L341.76 339.56H331.84Z" fill="#A9C2AE"/><rect x="329.11" y="332.92" width="15.38" height="2.18" fill="#A9C2AE"/><rect x="333.23" y="311.85" width="7.14" height="11.85" fill="#A9C2AE"/><path d="M332.04 311.85L336.8 292.07L341.56 311.85Z" fill="#A9C2AE"/><path d="M336.8 292.07L336.8 283.14" fill="none" stroke="#A9C2AE" stroke-width="1.19" stroke-linecap="round" stroke-linejoin="round"/><path d="M333.94 279.28A3.17 3.17 0 1 0 339.66 279.28A2.92 2.92 0 0 1 333.94 279.28Z" fill="#A9C2AE"/><rect x="181.8" y="411.36" width="136.4" height="44.64" fill="#A9C2AE"/><rect x="179.32" y="407.64" width="141.36" height="4.34" fill="#A9C2AE"/><path d="M183.6 407.64L185.59 403.92L187.57 407.64Z" fill="#A9C2AE"/><path d="M191.18 407.64L193.17 403.92L195.15 407.64Z" fill="#A9C2AE"/><path d="M198.76 407.64L200.74 403.92L202.73 407.64Z" fill="#A9C2AE"/><path d="M206.34 407.64L208.32 403.92L210.31 407.64Z" fill="#A9C2AE"/><path d="M213.92 407.64L215.9 403.92L217.88 407.64Z" fill="#A9C2AE"/><path d="M221.49 407.64L223.48 403.92L225.46 407.64Z" fill="#A9C2AE"/><path d="M229.07 407.64L231.06 403.92L233.04 407.64Z" fill="#A9C2AE"/><path d="M236.65 407.64L238.63 403.92L240.62 407.64Z" fill="#A9C2AE"/><path d="M244.23 407.64L246.21 403.92L248.2 407.64Z" fill="#A9C2AE"/><path d="M251.8 407.64L253.79 403.92L255.77 407.64Z" fill="#A9C2AE"/><path d="M259.38 407.64L261.37 403.92L263.35 407.64Z" fill="#A9C2AE"/><path d="M266.96 407.64L268.94 403.92L270.93 407.64Z" fill="#A9C2AE"/><path d="M274.54 407.64L276.52 403.92L278.51 407.64Z" fill="#A9C2AE"/><path d="M282.12 407.64L284.1 403.92L286.08 407.64Z" fill="#A9C2AE"/><path d="M289.69 407.64L291.68 403.92L293.66 407.64Z" fill="#A9C2AE"/><path d="M297.27 407.64L299.26 403.92L301.24 407.64Z" fill="#A9C2AE"/><path d="M304.85 407.64L306.83 403.92L308.82 407.64Z" fill="#A9C2AE"/><path d="M312.43 407.64L314.41 403.92L316.4 407.64Z" fill="#A9C2AE"/><rect x="192.96" y="400.2" width="24.8" height="8.06" fill="#A9C2AE"/><path d="M191.72 400.2C191.72 388.11 193.08 384.08 205.36 384.08C217.64 384.08 219 388.11 219 400.2Z" fill="#A9C2AE"/><path d="M205.36 384.08L205.36 378.5" fill="none" stroke="#A9C2AE" stroke-width="0.99" stroke-linecap="round" stroke-linejoin="round"/><rect x="282.24" y="400.2" width="24.8" height="8.06" fill="#A9C2AE"/><path d="M281 400.2C281 388.11 282.36 384.08 294.64 384.08C306.92 384.08 308.28 388.11 308.28 400.2Z" fill="#A9C2AE"/><path d="M294.64 384.08L294.64 378.5" fill="none" stroke="#A9C2AE" stroke-width="0.99" stroke-linecap="round" stroke-linejoin="round"/><rect x="220.24" y="392.76" width="59.52" height="15.5" fill="#A9C2AE"/><rect x="217.76" y="390.9" width="64.48" height="3.1" fill="#A9C2AE"/><path d="M214.04 390.9C214.04 358.35 217.64 347.5 250 347.5C282.36 347.5 285.96 358.35 285.96 390.9Z" fill="#A9C2AE"/><path d="M250 347.5L250 337.58" fill="none" stroke="#A9C2AE" stroke-width="1.49" stroke-linecap="round" stroke-linejoin="round"/><path d="M246.65 332.23A3.72 3.72 0 1 0 253.35 332.23A3.42 3.42 0 0 1 246.65 332.23Z" fill="#A9C2AE"/><path d="M60 379.44C71.52 403.61 69.75 450.33 62.13 460H57.87C50.25 450.33 48.48 403.61 60 379.44Z" fill="#A9C2AE"/><path d="M120 393.54C129.5 413.48 128.04 452.02 121.75 460H118.25C111.96 452.02 110.5 413.48 120 393.54Z" fill="#A9C2AE"/><path d="M430 382.08C441.14 405.46 439.43 450.65 432.06 460H427.94C420.57 450.65 418.86 405.46 430 382.08Z" fill="#A9C2AE"/><path d="M470 377.95C481.73 402.57 479.93 450.15 472.17 460H467.83C460.07 450.15 458.27 402.57 470 377.95Z" fill="#A9C2AE"/><path d="M700 372.25C712.55 398.57 710.62 449.47 702.32 460H697.68C689.38 449.47 687.45 398.57 700 372.25Z" fill="#A9C2AE"/><path d="M1130 396.71C1139.05 415.69 1137.66 452.4 1131.67 460H1128.33C1122.34 452.4 1120.95 415.69 1130 396.71Z" fill="#A9C2AE"/><rect x="0" y="454" width="1200" height="40" fill="#A9C2AE"/><path d="M702 470L703.28 255H716.72L718 470Z" fill="#3F7A5E"/><path d="M696 345H724L718 352.2H702Z" fill="#CDAE6E"/><rect x="696" y="341.48" width="28" height="3.52" fill="#CDAE6E"/><path d="M697.6 275H722.4L718 282.2H702Z" fill="#CDAE6E"/><rect x="697.6" y="271.48" width="24.8" height="3.52" fill="#CDAE6E"/><rect x="704.24" y="237.5" width="11.52" height="18.5" fill="#3F7A5E"/><path d="M702.32 237.5L710 205.6L717.68 237.5Z" fill="#CDAE6E"/><path d="M710 205.6L710 191.2" fill="none" stroke="#CDAE6E" stroke-width="1.92" stroke-linecap="round" stroke-linejoin="round"/><path d="M705.39 184.96A5.12 5.12 0 1 0 714.61 184.96A4.71 4.71 0 0 1 705.39 184.96Z" fill="#CDAE6E"/><path d="M982 470L983.28 255H996.72L998 470Z" fill="#3F7A5E"/><path d="M976 345H1004L998 352.2H982Z" fill="#CDAE6E"/><rect x="976" y="341.48" width="28" height="3.52" fill="#CDAE6E"/><path d="M977.6 275H1002.4L998 282.2H982Z" fill="#CDAE6E"/><rect x="977.6" y="271.48" width="24.8" height="3.52" fill="#CDAE6E"/><rect x="984.24" y="237.5" width="11.52" height="18.5" fill="#3F7A5E"/><path d="M982.32 237.5L990 205.6L997.68 237.5Z" fill="#CDAE6E"/><path d="M990 205.6L990 191.2" fill="none" stroke="#CDAE6E" stroke-width="1.92" stroke-linecap="round" stroke-linejoin="round"/><path d="M985.39 184.96A5.12 5.12 0 1 0 994.61 184.96A4.71 4.71 0 0 1 985.39 184.96Z" fill="#CDAE6E"/><rect x="740" y="398" width="220" height="72" fill="#3F7A5E"/><rect x="736" y="392" width="228" height="7" fill="#CDAE6E"/><path d="M742.91 392L746.11 386L749.31 392Z" fill="#CDAE6E"/><path d="M755.13 392L758.33 386L761.53 392Z" fill="#CDAE6E"/><path d="M767.36 392L770.56 386L773.76 392Z" fill="#CDAE6E"/><path d="M779.58 392L782.78 386L785.98 392Z" fill="#CDAE6E"/><path d="M791.8 392L795 386L798.2 392Z" fill="#CDAE6E"/><path d="M804.02 392L807.22 386L810.42 392Z" fill="#CDAE6E"/><path d="M816.24 392L819.44 386L822.64 392Z" fill="#CDAE6E"/><path d="M828.47 392L831.67 386L834.87 392Z" fill="#CDAE6E"/><path d="M840.69 392L843.89 386L847.09 392Z" fill="#CDAE6E"/><path d="M852.91 392L856.11 386L859.31 392Z" fill="#CDAE6E"/><path d="M865.13 392L868.33 386L871.53 392Z" fill="#CDAE6E"/><path d="M877.36 392L880.56 386L883.76 392Z" fill="#CDAE6E"/><path d="M889.58 392L892.78 386L895.98 392Z" fill="#CDAE6E"/><path d="M901.8 392L905 386L908.2 392Z" fill="#CDAE6E"/><path d="M914.02 392L917.22 386L920.42 392Z" fill="#CDAE6E"/><path d="M926.24 392L929.44 386L932.64 392Z" fill="#CDAE6E"/><path d="M938.47 392L941.67 386L944.87 392Z" fill="#CDAE6E"/><path d="M950.69 392L953.89 386L957.09 392Z" fill="#CDAE6E"/><rect x="758" y="380" width="40" height="13" fill="#3F7A5E"/><path d="M757 380C751.12 366.8 757.84 352.72 771.28 344.8C775.06 341.28 777.16 339.08 778 336C778.84 339.08 780.94 341.28 784.72 344.8C798.16 352.72 804.88 366.8 799 380Z" fill="#2F6B4F"/><path d="M778 336L778 327" fill="none" stroke="#CDAE6E" stroke-width="1.6" stroke-linecap="round" stroke-linejoin="round"/><rect x="902" y="380" width="40" height="13" fill="#3F7A5E"/><path d="M901 380C895.12 366.8 901.84 352.72 915.28 344.8C919.06 341.28 921.16 339.08 922 336C922.84 339.08 924.94 341.28 928.72 344.8C942.16 352.72 948.88 366.8 943 380Z" fill="#2F6B4F"/><path d="M922 336L922 327" fill="none" stroke="#CDAE6E" stroke-width="1.6" stroke-linecap="round" stroke-linejoin="round"/><rect x="802" y="368" width="96" height="25" fill="#3F7A5E"/><rect x="798" y="365" width="104" height="5" fill="#CDAE6E"/><path d="M794 365C778.32 329.6 796.24 291.84 832.08 270.6C842.16 261.16 847.76 255.26 850 247C852.24 255.26 857.84 261.16 867.92 270.6C903.76 291.84 921.68 329.6 906 365Z" fill="#2F6B4F"/><path d="M850 247L850 231" fill="none" stroke="#CDAE6E" stroke-width="2.4" stroke-linecap="round" stroke-linejoin="round"/><path d="M844.6 222.38A6 6 0 1 0 855.4 222.38A5.52 5.52 0 0 1 844.6 222.38Z" fill="#CDAE6E"/><path d="M812 389V379.2C812 376.72 813.68 375.48 816 375C818.32 375.48 820 376.72 820 379.2V389Z" fill="#E8F0E6"/><path d="M828.5 389V379.2C828.5 376.72 830.18 375.48 832.5 375C834.82 375.48 836.5 376.72 836.5 379.2V389Z" fill="#E8F0E6"/><path d="M845 389V379.2C845 376.72 846.68 375.48 849 375C851.32 375.48 853 376.72 853 379.2V389Z" fill="#E8F0E6"/><path d="M861.5 389V379.2C861.5 376.72 863.18 375.48 865.5 375C867.82 375.48 869.5 376.72 869.5 379.2V389Z" fill="#E8F0E6"/><path d="M878 389V379.2C878 376.72 879.68 375.48 882 375C884.32 375.48 886 376.72 886 379.2V389Z" fill="#E8F0E6"/><path d="M828 470V435.1C828 421.46 837.24 414.64 850 412C862.76 414.64 872 421.46 872 435.1V470Z" fill="#E8F0E6"/><path d="M800 462V435.35C800 431.01 802.94 428.84 807 428C811.06 428.84 814 431.01 814 435.35V462Z" fill="#E8F0E6"/><path d="M776 462V435.35C776 431.01 778.94 428.84 783 428C787.06 428.84 790 431.01 790 435.35V462Z" fill="#E8F0E6"/><path d="M752 462V435.35C752 431.01 754.94 428.84 759 428C763.06 428.84 766 431.01 766 435.35V462Z" fill="#E8F0E6"/><path d="M886 462V435.35C886 431.01 888.94 428.84 893 428C897.06 428.84 900 431.01 900 435.35V462Z" fill="#E8F0E6"/><path d="M910 462V435.35C910 431.01 912.94 428.84 917 428C921.06 428.84 924 431.01 924 435.35V462Z" fill="#E8F0E6"/><path d="M934 462V435.35C934 431.01 936.94 428.84 941 428C945.06 428.84 948 431.01 948 435.35V462Z" fill="#E8F0E6"/><rect x="0" y="468" width="1200" height="52" fill="#3F7A5E"/></svg>