<svg xmlns="http://www.w3.org/2000/svg" width="240" height="240" viewBox="0 0 240 240"><circle cx="120" cy="120" r="112" fill="#F3EEE1"/><ellipse cx="120" cy="196" rx="90" ry="9" fill="#000" opacity="0.06"/><path d="M61 195H208.25L213 199.7H57.2Z" fill="#CDAE6E"/><path d="M118 112.3L118.95 150.3L118 187.35" fill="none" stroke="#2F6B4F" stroke-width="18.05" stroke-linecap="round" stroke-linejoin="round"/><path d="M118 187.35L135.1 191.15" fill="none" stroke="#2F6B4F" stroke-width="8.55" stroke-linecap="round" stroke-linejoin="round"/><path d="M118 112.3L118 63.85" fill="none" stroke="#2F6B4F" stroke-width="28.5" stroke-linecap="round" stroke-linejoin="round"/><path d="M118 63.85L118.95 56.25" fill="none" stroke="#2F6B4F" stroke-width="10.45" stroke-linecap="round" stroke-linejoin="round"/><path d="M103.75 70.5L132.25 70.5L136.05 178.8Q118 182.6 99.95 178.8Z" fill="#2F6B4F"/><path d="M118 63.85L129.4 78.1L129.4 49.6" fill="none" stroke="#F3EEE1" stroke-width="15.2" stroke-linecap="round" stroke-linejoin="round"/><path d="M135.29 51.5L134.11 40.78Q129.4 36.07 124.69 40.78L123.51 51.5Z" fill="#F3EEE1" stroke="#F3EEE1" stroke-width="4.75" stroke-linecap="round" stroke-linejoin="round"/><path d="M118 63.85L129.4 78.1L129.4 49.6" fill="none" stroke="#3E8462" stroke-width="10.45" stroke-linecap="round" stroke-linejoin="round"/><path d="M135.29 51.5L134.11 40.78Q129.4 36.07 124.69 40.78L123.51 51.5Z" fill="#3E8462"/><circle cx="120.85" cy="43.9" r="11.88" fill="#2F6B4F"/><path d="M108.74 40.93Q120.85 25.49 132.96 40.93Z" fill="#FFFFFF"/></svg>